<svg t="1671523918881" class="icon" viewBox="0 0 1024 1024" version="1.1" xmlns="http://www.w3.org/2000/svg" p-id="2798" width="200" height="200"><path d="M512 0C228.430769 0 0 228.430769 0 512s228.430769 512 512 512 512-228.430769 512-512S795.569231 0 512 0z m0 59.076923c102.4 0 196.923077 35.446154 275.692308 94.523077L153.6 787.692308c-59.076923-74.830769-94.523077-173.292308-94.523077-275.692308C59.076923 263.876923 263.876923 59.076923 512 59.076923z m0 905.846154c-102.4 0-196.923077-35.446154-275.692308-94.523077L870.4 236.307692c59.076923 74.830769 94.523077 173.292308 94.523077 275.692308 0 248.123077-204.8 452.923077-452.923077 452.923077z" fill="#999999" p-id="2799"></path></svg>